<?xml version="1.0" encoding="UTF-8" standalone="no"?>
<!DOCTYPE svg PUBLIC "-//W3C//DTD SVG 1.1//EN"
 "http://www.w3.org/Graphics/SVG/1.1/DTD/svg11.dtd">
<!-- Generated by graphviz version 2.38.0 (20140413.2041)
 -->
<!-- Title: asm_graph Pages: 1 -->
<svg width="885pt" height="1796pt"
 viewBox="0.00 0.00 884.73 1796.00" xmlns="http://www.w3.org/2000/svg" xmlns:xlink="http://www.w3.org/1999/xlink">
<g id="graph0" class="graph" transform="scale(1 1) rotate(0) translate(4 1792)">
<title>asm_graph</title>
<polygon fill="white" stroke="none" points="-4,4 -4,-1792 880.73,-1792 880.73,4 -4,4"/>
<!-- 8749081458337 -->
<g id="node1" class="node"><title>8749081458337</title>
<path fill="none" stroke="black" d="M147,-139.5C147,-139.5 513,-139.5 513,-139.5 519,-139.5 525,-145.5 525,-151.5 525,-151.5 525,-413.5 525,-413.5 525,-419.5 519,-425.5 513,-425.5 513,-425.5 147,-425.5 147,-425.5 141,-425.5 135,-419.5 135,-413.5 135,-413.5 135,-151.5 135,-151.5 135,-145.5 141,-139.5 147,-139.5"/>
<polygon fill="grey" stroke="none" points="145,-398.5 145,-419.5 515,-419.5 515,-398.5 145,-398.5"/>
<text text-anchor="start" x="247" y="-405.3" font-family="Courier New" font-size="14.00">loc_000000000000012C</text>
<text text-anchor="start" x="148" y="-382.3" font-family="Courier New" font-size="14.00">0000012C</text>
<text text-anchor="start" x="223" y="-382.3" font-family="Courier New" font-size="14.00">MOV R11, 1</text>
<text text-anchor="start" x="148" y="-359.3" font-family="Courier New" font-size="14.00">0000012E</text>
<text text-anchor="start" x="223" y="-359.3" font-family="Courier New" font-size="14.00">MOVU R3, 0x1FFFFF</text>
<text text-anchor="start" x="148" y="-336.3" font-family="Courier New" font-size="14.00">00000132</text>
<text text-anchor="start" x="223" y="-336.3" font-family="Courier New" font-size="14.00">MOVH R12, 0xC0</text>
<text text-anchor="start" x="148" y="-313.3" font-family="Courier New" font-size="14.00">00000136</text>
<text text-anchor="start" x="223" y="-313.3" font-family="Courier New" font-size="14.00">SW R12, (0x41E120)</text>
<text text-anchor="start" x="148" y="-290.3" font-family="Courier New" font-size="14.00">0000013A</text>
<text text-anchor="start" x="223" y="-290.3" font-family="Courier New" font-size="14.00">MOV R12, 0</text>
<text text-anchor="start" x="148" y="-267.3" font-family="Courier New" font-size="14.00">0000013C</text>
<text text-anchor="start" x="223" y="-267.3" font-family="Courier New" font-size="14.00">SW R3, (0x41E124)</text>
<text text-anchor="start" x="148" y="-244.3" font-family="Courier New" font-size="14.00">00000140</text>
<text text-anchor="start" x="223" y="-244.3" font-family="Courier New" font-size="14.00">SW R12, (0x41E128)</text>
<text text-anchor="start" x="148" y="-221.3" font-family="Courier New" font-size="14.00">00000144</text>
<text text-anchor="start" x="223" y="-221.3" font-family="Courier New" font-size="14.00">SW R12, (0x41E12C)</text>
<text text-anchor="start" x="148" y="-198.3" font-family="Courier New" font-size="14.00">00000148</text>
<text text-anchor="start" x="223" y="-198.3" font-family="Courier New" font-size="14.00">SW R11, (0x41E130)</text>
<text text-anchor="start" x="148" y="-175.3" font-family="Courier New" font-size="14.00">0000014C</text>
<text text-anchor="start" x="223" y="-175.3" font-family="Courier New" font-size="14.00">SW R11, (0x41E14C)</text>
<text text-anchor="start" x="148" y="-152.3" font-family="Courier New" font-size="14.00">00000150</text>
<text text-anchor="start" x="223" y="-152.3" font-family="Courier New" font-size="14.00">BRA loc_00000000000001F6:0x000001f6</text>
</g>
<!-- 8749081471257 -->
<g id="node8" class="node"><title>8749081471257</title>
<path fill="none" stroke="black" d="M258,-0.5C258,-0.5 624,-0.5 624,-0.5 630,-0.5 636,-6.5 636,-12.5 636,-12.5 636,-90.5 636,-90.5 636,-96.5 630,-102.5 624,-102.5 624,-102.5 258,-102.5 258,-102.5 252,-102.5 246,-96.5 246,-90.5 246,-90.5 246,-12.5 246,-12.5 246,-6.5 252,-0.5 258,-0.5"/>
<polygon fill="grey" stroke="none" points="256,-75.5 256,-96.5 626,-96.5 626,-75.5 256,-75.5"/>
<text text-anchor="start" x="358" y="-82.3" font-family="Courier New" font-size="14.00">loc_00000000000001F6</text>
<text text-anchor="start" x="259" y="-59.3" font-family="Courier New" font-size="14.00">000001F6</text>
<text text-anchor="start" x="334" y="-59.3" font-family="Courier New" font-size="14.00">MOVH SP, 0x28</text>
<text text-anchor="start" x="259" y="-36.3" font-family="Courier New" font-size="14.00">000001FA</text>
<text text-anchor="start" x="334" y="-36.3" font-family="Courier New" font-size="14.00">ADD3 SP, SP, 0x800</text>
<text text-anchor="start" x="259" y="-13.3" font-family="Courier New" font-size="14.00">000001FE</text>
<text text-anchor="start" x="334" y="-13.3" font-family="Courier New" font-size="14.00">BSR loc_000000000000020C:0x0000020c</text>
</g>
<!-- 8749081458337&#45;&gt;8749081471257 -->
<g id="edge8" class="edge"><title>8749081458337&#45;&gt;8749081471257</title>
<path fill="none" stroke="blue" d="M398.877,-139.402C403.489,-129.888 407.969,-120.645 412.18,-111.957"/>
<polygon fill="blue" stroke="blue" points="415.426,-113.286 416.638,-102.761 409.127,-110.233 415.426,-113.286"/>
</g>
<!-- 8749081467881 -->
<g id="node2" class="node"><title>8749081467881</title>
<path fill="none" stroke="black" d="M12,-969.5C12,-969.5 230,-969.5 230,-969.5 236,-969.5 242,-975.5 242,-981.5 242,-981.5 242,-1243.5 242,-1243.5 242,-1249.5 236,-1255.5 230,-1255.5 230,-1255.5 12,-1255.5 12,-1255.5 6,-1255.5 0,-1249.5 0,-1243.5 0,-1243.5 0,-981.5 0,-981.5 0,-975.5 6,-969.5 12,-969.5"/>
<polygon fill="grey" stroke="none" points="10,-1228.5 10,-1249.5 232,-1249.5 232,-1228.5 10,-1228.5"/>
<text text-anchor="start" x="38" y="-1235.3" font-family="Courier New" font-size="14.00">loc_00000000000001D2</text>
<text text-anchor="start" x="13" y="-1212.3" font-family="Courier New" font-size="14.00">000001D2</text>
<text text-anchor="start" x="88" y="-1212.3" font-family="Courier New" font-size="14.00">MOVH R11, 0x8000</text>
<text text-anchor="start" x="13" y="-1189.3" font-family="Courier New" font-size="14.00">000001D6</text>
<text text-anchor="start" x="88" y="-1189.3" font-family="Courier New" font-size="14.00">MOVU R2, 0x412034</text>
<text text-anchor="start" x="13" y="-1166.3" font-family="Courier New" font-size="14.00">000001DA</text>
<text text-anchor="start" x="88" y="-1166.3" font-family="Courier New" font-size="14.00">MOVU R1, 0x412010</text>
<text text-anchor="start" x="13" y="-1143.3" font-family="Courier New" font-size="14.00">000001DE</text>
<text text-anchor="start" x="88" y="-1143.3" font-family="Courier New" font-size="14.00">MOVH R12, 0xC0</text>
<text text-anchor="start" x="13" y="-1120.3" font-family="Courier New" font-size="14.00">000001E2</text>
<text text-anchor="start" x="88" y="-1120.3" font-family="Courier New" font-size="14.00">MOVU R4, 0x605138</text>
<text text-anchor="start" x="13" y="-1097.3" font-family="Courier New" font-size="14.00">000001E6</text>
<text text-anchor="start" x="88" y="-1097.3" font-family="Courier New" font-size="14.00">MOVU R3, 0x412000</text>
<text text-anchor="start" x="13" y="-1074.3" font-family="Courier New" font-size="14.00">000001EA</text>
<text text-anchor="start" x="88" y="-1074.3" font-family="Courier New" font-size="14.00">SW R4, (R3)</text>
<text text-anchor="start" x="13" y="-1051.3" font-family="Courier New" font-size="14.00">000001EC</text>
<text text-anchor="start" x="88" y="-1051.3" font-family="Courier New" font-size="14.00">MOVU R3, 0x412014</text>
<text text-anchor="start" x="13" y="-1028.3" font-family="Courier New" font-size="14.00">000001F0</text>
<text text-anchor="start" x="88" y="-1028.3" font-family="Courier New" font-size="14.00">SW R12, (R3)</text>
<text text-anchor="start" x="13" y="-1005.3" font-family="Courier New" font-size="14.00">000001F2</text>
<text text-anchor="start" x="88" y="-1005.3" font-family="Courier New" font-size="14.00">SW R4, (R1)</text>
<text text-anchor="start" x="13" y="-982.3" font-family="Courier New" font-size="14.00">000001F4</text>
<text text-anchor="start" x="88" y="-982.3" font-family="Courier New" font-size="14.00">SW R11, (R2)</text>
</g>
<!-- 8749081467881&#45;&gt;8749081471257 -->
<g id="edge7" class="edge"><title>8749081467881&#45;&gt;8749081471257</title>
<path fill="none" stroke="blue" d="M71.6174,-969.117C9.51629,-761.45 -67.2682,-374.633 126,-139 142.218,-119.227 186.104,-102.65 236.151,-89.4714"/>
<polygon fill="blue" stroke="blue" points="237.085,-92.8453 245.899,-86.9658 235.342,-86.0657 237.085,-92.8453"/>
</g>
<!-- 8749081467853 -->
<g id="node3" class="node"><title>8749081467853</title>
<path fill="none" stroke="black" d="M346.5,-1292.5C346.5,-1292.5 803.5,-1292.5 803.5,-1292.5 809.5,-1292.5 815.5,-1298.5 815.5,-1304.5 815.5,-1304.5 815.5,-1336.5 815.5,-1336.5 815.5,-1342.5 809.5,-1348.5 803.5,-1348.5 803.5,-1348.5 346.5,-1348.5 346.5,-1348.5 340.5,-1348.5 334.5,-1342.5 334.5,-1336.5 334.5,-1336.5 334.5,-1304.5 334.5,-1304.5 334.5,-1298.5 340.5,-1292.5 346.5,-1292.5"/>
<polygon fill="grey" stroke="none" points="345,-1321.5 345,-1342.5 806,-1342.5 806,-1321.5 345,-1321.5"/>
<text text-anchor="start" x="492.5" y="-1328.3" font-family="Courier New" font-size="14.00">loc_0000000000000120</text>
<text text-anchor="start" x="348" y="-1305.3" font-family="Courier New" font-size="14.00">00000120</text>
<text text-anchor="start" x="423" y="-1305.3" font-family="Courier New" font-size="14.00">BEQI R11, 0x2, loc_00000000000001F6:0x000001f6</text>
</g>
<!-- 8749081467761 -->
<g id="node5" class="node"><title>8749081467761</title>
<path fill="none" stroke="black" d="M346.5,-1084.5C346.5,-1084.5 803.5,-1084.5 803.5,-1084.5 809.5,-1084.5 815.5,-1090.5 815.5,-1096.5 815.5,-1096.5 815.5,-1128.5 815.5,-1128.5 815.5,-1134.5 809.5,-1140.5 803.5,-1140.5 803.5,-1140.5 346.5,-1140.5 346.5,-1140.5 340.5,-1140.5 334.5,-1134.5 334.5,-1128.5 334.5,-1128.5 334.5,-1096.5 334.5,-1096.5 334.5,-1090.5 340.5,-1084.5 346.5,-1084.5"/>
<polygon fill="grey" stroke="none" points="345,-1113.5 345,-1134.5 806,-1134.5 806,-1113.5 345,-1113.5"/>
<text text-anchor="start" x="492.5" y="-1120.3" font-family="Courier New" font-size="14.00">loc_0000000000000124</text>
<text text-anchor="start" x="348" y="-1097.3" font-family="Courier New" font-size="14.00">00000124</text>
<text text-anchor="start" x="423" y="-1097.3" font-family="Courier New" font-size="14.00">BEQI R11, 0x1, loc_0000000000000152:0x00000152</text>
</g>
<!-- 8749081467853&#45;&gt;8749081467761 -->
<g id="edge3" class="edge"><title>8749081467853&#45;&gt;8749081467761</title>
<path fill="none" stroke="red" d="M575,-1292.14C575,-1255.8 575,-1191.45 575,-1150.71"/>
<polygon fill="red" stroke="red" points="578.5,-1150.64 575,-1140.64 571.5,-1150.64 578.5,-1150.64"/>
</g>
<!-- 8749081467853&#45;&gt;8749081471257 -->
<g id="edge6" class="edge"><title>8749081467853&#45;&gt;8749081471257</title>
<path fill="none" stroke="limegreen" d="M738.898,-1292.49C777.386,-1282.93 811.01,-1270.79 824,-1256 905.698,-1162.97 869.667,-479.058 863,-462 800.739,-302.697 639.225,-176.514 535.038,-108.331"/>
<polygon fill="limegreen" stroke="limegreen" points="536.685,-105.227 526.391,-102.719 532.874,-111.099 536.685,-105.227"/>
</g>
<!-- 8749081467725 -->
<g id="node4" class="node"><title>8749081467725</title>
<path fill="none" stroke="black" d="M137.5,-1385.5C137.5,-1385.5 594.5,-1385.5 594.5,-1385.5 600.5,-1385.5 606.5,-1391.5 606.5,-1397.5 606.5,-1397.5 606.5,-1682.5 606.5,-1682.5 606.5,-1688.5 600.5,-1694.5 594.5,-1694.5 594.5,-1694.5 137.5,-1694.5 137.5,-1694.5 131.5,-1694.5 125.5,-1688.5 125.5,-1682.5 125.5,-1682.5 125.5,-1397.5 125.5,-1397.5 125.5,-1391.5 131.5,-1385.5 137.5,-1385.5"/>
<polygon fill="grey" stroke="none" points="136,-1667 136,-1688 597,-1688 597,-1667 136,-1667"/>
<text text-anchor="start" x="283.5" y="-1673.8" font-family="Courier New" font-size="14.00">loc_0000000000000100</text>
<text text-anchor="start" x="139" y="-1650.8" font-family="Courier New" font-size="14.00">00000100</text>
<text text-anchor="start" x="214" y="-1650.8" font-family="Courier New" font-size="14.00">DI</text>
<text text-anchor="start" x="139" y="-1627.8" font-family="Courier New" font-size="14.00">00000102</text>
<text text-anchor="start" x="214" y="-1627.8" font-family="Courier New" font-size="14.00">MOV R9, 40</text>
<text text-anchor="start" x="139" y="-1604.8" font-family="Courier New" font-size="14.00">00000104</text>
<text text-anchor="start" x="214" y="-1604.8" font-family="Courier New" font-size="14.00">STC R9, CFG</text>
<text text-anchor="start" x="139" y="-1581.8" font-family="Courier New" font-size="14.00">00000106</text>
<text text-anchor="start" x="214" y="-1581.8" font-family="Courier New" font-size="14.00">MOV R9, 0</text>
<text text-anchor="start" x="139" y="-1558.8" font-family="Courier New" font-size="14.00">00000108</text>
<text text-anchor="start" x="214" y="-1558.8" font-family="Courier New" font-size="14.00">STC R9, RPE</text>
<text text-anchor="start" x="139" y="-1535.8" font-family="Courier New" font-size="14.00">0000010A</text>
<text text-anchor="start" x="214" y="-1535.8" font-family="Courier New" font-size="14.00">LW R11, (0x41A000)</text>
<text text-anchor="start" x="139" y="-1512.8" font-family="Courier New" font-size="14.00">0000010E</text>
<text text-anchor="start" x="214" y="-1512.8" font-family="Courier New" font-size="14.00">AND3 R12, R11, 0x1000</text>
<text text-anchor="start" x="139" y="-1489.8" font-family="Courier New" font-size="14.00">00000112</text>
<text text-anchor="start" x="214" y="-1489.8" font-family="Courier New" font-size="14.00">AND3 R11, R11, 0x20</text>
<text text-anchor="start" x="139" y="-1466.8" font-family="Courier New" font-size="14.00">00000116</text>
<text text-anchor="start" x="214" y="-1466.8" font-family="Courier New" font-size="14.00">SRL R11, 0x5</text>
<text text-anchor="start" x="139" y="-1443.8" font-family="Courier New" font-size="14.00">00000118</text>
<text text-anchor="start" x="214" y="-1443.8" font-family="Courier New" font-size="14.00">SRL R12, 0xB</text>
<text text-anchor="start" x="139" y="-1420.8" font-family="Courier New" font-size="14.00">0000011A</text>
<text text-anchor="start" x="214" y="-1420.8" font-family="Courier New" font-size="14.00">OR R11, R12</text>
<text text-anchor="start" x="139" y="-1397.8" font-family="Courier New" font-size="14.00">0000011C</text>
<text text-anchor="start" x="214" y="-1397.8" font-family="Courier New" font-size="14.00">BEQI R11, 0x3, loc_00000000000001D2:0x000001d2</text>
</g>
<!-- 8749081467725&#45;&gt;8749081467881 -->
<g id="edge1" class="edge"><title>8749081467725&#45;&gt;8749081467881</title>
<path fill="none" stroke="limegreen" d="M277.549,-1385.38C254.867,-1345.99 230.493,-1303.66 207.891,-1264.41"/>
<polygon fill="limegreen" stroke="limegreen" points="210.817,-1262.47 202.794,-1255.56 204.751,-1265.97 210.817,-1262.47"/>
</g>
<!-- 8749081467725&#45;&gt;8749081467853 -->
<g id="edge2" class="edge"><title>8749081467725&#45;&gt;8749081467853</title>
<path fill="none" stroke="red" d="M513.705,-1385.29C523.905,-1374.67 533.438,-1364.75 541.805,-1356.04"/>
<polygon fill="red" stroke="red" points="544.44,-1358.35 548.846,-1348.72 539.393,-1353.5 544.44,-1358.35"/>
</g>
<!-- 8749081458325 -->
<g id="node6" class="node"><title>8749081458325</title>
<path fill="none" stroke="black" d="M124.5,-669.5C124.5,-669.5 581.5,-669.5 581.5,-669.5 587.5,-669.5 593.5,-675.5 593.5,-681.5 593.5,-681.5 593.5,-713.5 593.5,-713.5 593.5,-719.5 587.5,-725.5 581.5,-725.5 581.5,-725.5 124.5,-725.5 124.5,-725.5 118.5,-725.5 112.5,-719.5 112.5,-713.5 112.5,-713.5 112.5,-681.5 112.5,-681.5 112.5,-675.5 118.5,-669.5 124.5,-669.5"/>
<polygon fill="grey" stroke="none" points="123,-698.5 123,-719.5 584,-719.5 584,-698.5 123,-698.5"/>
<text text-anchor="start" x="270.5" y="-705.3" font-family="Courier New" font-size="14.00">loc_0000000000000128</text>
<text text-anchor="start" x="126" y="-682.3" font-family="Courier New" font-size="14.00">00000128</text>
<text text-anchor="start" x="201" y="-682.3" font-family="Courier New" font-size="14.00">BNEI R11, 0x0, loc_00000000000001F6:0x000001f6</text>
</g>
<!-- 8749081467761&#45;&gt;8749081458325 -->
<g id="edge4" class="edge"><title>8749081467761&#45;&gt;8749081458325</title>
<path fill="none" stroke="red" d="M560.434,-1084.4C521.702,-1012.35 416.144,-815.971 372.395,-734.582"/>
<polygon fill="red" stroke="red" points="375.437,-732.849 367.62,-725.698 369.272,-736.163 375.437,-732.849"/>
</g>
<!-- 8749081458261 -->
<g id="node9" class="node"><title>8749081458261</title>
<path fill="none" stroke="black" d="M624,-462.5C624,-462.5 842,-462.5 842,-462.5 848,-462.5 854,-468.5 854,-474.5 854,-474.5 854,-920.5 854,-920.5 854,-926.5 848,-932.5 842,-932.5 842,-932.5 624,-932.5 624,-932.5 618,-932.5 612,-926.5 612,-920.5 612,-920.5 612,-474.5 612,-474.5 612,-468.5 618,-462.5 624,-462.5"/>
<polygon fill="grey" stroke="none" points="622,-905.5 622,-926.5 844,-926.5 844,-905.5 622,-905.5"/>
<text text-anchor="start" x="650" y="-912.3" font-family="Courier New" font-size="14.00">loc_0000000000000152</text>
<text text-anchor="start" x="625" y="-889.3" font-family="Courier New" font-size="14.00">00000152</text>
<text text-anchor="start" x="700" y="-889.3" font-family="Courier New" font-size="14.00">MOVU R3, 0x1B8</text>
<text text-anchor="start" x="625" y="-866.3" font-family="Courier New" font-size="14.00">00000156</text>
<text text-anchor="start" x="700" y="-866.3" font-family="Courier New" font-size="14.00">MOVU R4, 0x200100</text>
<text text-anchor="start" x="625" y="-843.3" font-family="Courier New" font-size="14.00">0000015A</text>
<text text-anchor="start" x="700" y="-843.3" font-family="Courier New" font-size="14.00">LW R12, (R3)</text>
<text text-anchor="start" x="625" y="-820.3" font-family="Courier New" font-size="14.00">0000015C</text>
<text text-anchor="start" x="700" y="-820.3" font-family="Courier New" font-size="14.00">SW R12, (R4)</text>
<text text-anchor="start" x="625" y="-797.3" font-family="Courier New" font-size="14.00">0000015E</text>
<text text-anchor="start" x="700" y="-797.3" font-family="Courier New" font-size="14.00">LW R12, 0x4(R3)</text>
<text text-anchor="start" x="625" y="-774.3" font-family="Courier New" font-size="14.00">00000162</text>
<text text-anchor="start" x="700" y="-774.3" font-family="Courier New" font-size="14.00">SW R12, 0x4(R4)</text>
<text text-anchor="start" x="625" y="-751.3" font-family="Courier New" font-size="14.00">00000166</text>
<text text-anchor="start" x="700" y="-751.3" font-family="Courier New" font-size="14.00">LW R12, 0x8(R3)</text>
<text text-anchor="start" x="625" y="-728.3" font-family="Courier New" font-size="14.00">0000016A</text>
<text text-anchor="start" x="700" y="-728.3" font-family="Courier New" font-size="14.00">SW R12, 0x8(R4)</text>
<text text-anchor="start" x="625" y="-705.3" font-family="Courier New" font-size="14.00">0000016E</text>
<text text-anchor="start" x="700" y="-705.3" font-family="Courier New" font-size="14.00">LW R12, 0xC(R3)</text>
<text text-anchor="start" x="625" y="-682.3" font-family="Courier New" font-size="14.00">00000172</text>
<text text-anchor="start" x="700" y="-682.3" font-family="Courier New" font-size="14.00">SW R12, 0xC(R4)</text>
<text text-anchor="start" x="625" y="-659.3" font-family="Courier New" font-size="14.00">00000176</text>
<text text-anchor="start" x="700" y="-659.3" font-family="Courier New" font-size="14.00">LW R12, 0x10(R3)</text>
<text text-anchor="start" x="625" y="-636.3" font-family="Courier New" font-size="14.00">0000017A</text>
<text text-anchor="start" x="700" y="-636.3" font-family="Courier New" font-size="14.00">SW R12, 0x10(R4)</text>
<text text-anchor="start" x="625" y="-613.3" font-family="Courier New" font-size="14.00">0000017E</text>
<text text-anchor="start" x="700" y="-613.3" font-family="Courier New" font-size="14.00">LW R12, 0x14(R3)</text>
<text text-anchor="start" x="625" y="-590.3" font-family="Courier New" font-size="14.00">00000182</text>
<text text-anchor="start" x="700" y="-590.3" font-family="Courier New" font-size="14.00">SW R12, 0x14(R4)</text>
<text text-anchor="start" x="625" y="-567.3" font-family="Courier New" font-size="14.00">00000186</text>
<text text-anchor="start" x="700" y="-567.3" font-family="Courier New" font-size="14.00">LW R12, 0x18(R3)</text>
<text text-anchor="start" x="625" y="-544.3" font-family="Courier New" font-size="14.00">0000018A</text>
<text text-anchor="start" x="700" y="-544.3" font-family="Courier New" font-size="14.00">SW R12, 0x18(R4)</text>
<text text-anchor="start" x="625" y="-521.3" font-family="Courier New" font-size="14.00">0000018E</text>
<text text-anchor="start" x="700" y="-521.3" font-family="Courier New" font-size="14.00">LW R12, 0x1C(R3)</text>
<text text-anchor="start" x="625" y="-498.3" font-family="Courier New" font-size="14.00">00000192</text>
<text text-anchor="start" x="700" y="-498.3" font-family="Courier New" font-size="14.00">SW R12, 0x1C(R4)</text>
<text text-anchor="start" x="625" y="-475.3" font-family="Courier New" font-size="14.00">00000196</text>
<text text-anchor="start" x="700" y="-475.3" font-family="Courier New" font-size="14.00">JSR R4</text>
</g>
<!-- 8749081467761&#45;&gt;8749081458261 -->
<g id="edge11" class="edge"><title>8749081467761&#45;&gt;8749081458261</title>
<path fill="none" stroke="limegreen" d="M585.367,-1084.4C597.17,-1053.55 617.694,-999.901 639.75,-942.248"/>
<polygon fill="limegreen" stroke="limegreen" points="643.143,-943.176 643.447,-932.585 636.605,-940.675 643.143,-943.176"/>
</g>
<!-- 8749081458325&#45;&gt;8749081458337 -->
<g id="edge5" class="edge"><title>8749081458325&#45;&gt;8749081458337</title>
<path fill="none" stroke="red" d="M351.491,-669.402C348.871,-622.363 343.301,-522.343 338.488,-435.919"/>
<polygon fill="red" stroke="red" points="341.971,-435.511 337.92,-425.721 334.982,-435.901 341.971,-435.511"/>
</g>
<!-- 8749081458325&#45;&gt;8749081471257 -->
<g id="edge9" class="edge"><title>8749081458325&#45;&gt;8749081471257</title>
<path fill="none" stroke="limegreen" d="M379.347,-669.443C421.749,-623.791 503.458,-526.564 534,-426 571.068,-303.949 584.938,-255.943 534,-139 529.505,-128.681 523.105,-119.037 515.738,-110.211"/>
<polygon fill="limegreen" stroke="limegreen" points="518.296,-107.82 509.039,-102.668 513.063,-112.469 518.296,-107.82"/>
</g>
<!-- 8749081467673 -->
<g id="node7" class="node"><title>8749081467673</title>
<path fill="none" stroke="black" d="M183,-1731.5C183,-1731.5 549,-1731.5 549,-1731.5 555,-1731.5 561,-1737.5 561,-1743.5 561,-1743.5 561,-1775.5 561,-1775.5 561,-1781.5 555,-1787.5 549,-1787.5 549,-1787.5 183,-1787.5 183,-1787.5 177,-1787.5 171,-1781.5 171,-1775.5 171,-1775.5 171,-1743.5 171,-1743.5 171,-1737.5 177,-1731.5 183,-1731.5"/>
<polygon fill="grey" stroke="none" points="181,-1760.5 181,-1781.5 551,-1781.5 551,-1760.5 181,-1760.5"/>
<text text-anchor="start" x="283" y="-1767.3" font-family="Courier New" font-size="14.00">loc_0000000000000000</text>
<text text-anchor="start" x="184" y="-1744.3" font-family="Courier New" font-size="14.00">00000000</text>
<text text-anchor="start" x="259" y="-1744.3" font-family="Courier New" font-size="14.00">JMP loc_0000000000000100:0x00000100</text>
</g>
<!-- 8749081467673&#45;&gt;8749081467725 -->
<g id="edge10" class="edge"><title>8749081467673&#45;&gt;8749081467725</title>
<path fill="none" stroke="blue" d="M366,-1731.39C366,-1723.71 366,-1714.74 366,-1704.96"/>
<polygon fill="blue" stroke="blue" points="369.5,-1704.93 366,-1694.93 362.5,-1704.93 369.5,-1704.93"/>
</g>
</g>
</svg>
